<svg xmlns="http://www.w3.org/2000/svg" width="170.667" height="170.667" preserveAspectRatio="xMidYMid meet" version="1.0" viewBox="0 0 128 128"><metadata>Created by potrace 1.11, written by Peter Selinger 2001-2013</metadata><g fill="#000" stroke="none"><path d="M1176 1234 c-3 -26 -7 -104 -7 -173 -1 -69 -4 -139 -8 -156 -3 -16 -3 -78 1 -138 10 -143 8 -147 -83 -144 -38 1 -73 -2 -77 -8 -12 -17 -41 -17 -78 1 -34 16 -36 20 -30 53 3 20 6 46 6 59 0 14 6 22 16 22 11 0 15 6 11 20 -3 11 -1 20 3 20 24 0 41 127 18 135 -9 4 -12 23 -9 62 4 74 -11 122 -51 161 -18 17 -46 45 -63 62 -28 28 -54 40 -117 54 -47 11 -31 -1 27 -20 68 -21 147 -94 102 -94 -8 0 -17 3 -21 7 -3 4 -21 7 -39 7 -18 1 -31 6 -30 12 1 6 -24 19 -55 28 l-57 16 -40 -29 c-22 -15 -50 -31 -61 -35 -40 -12 -75 -78 -84 -158 -5 -40 -13 -93 -19 -118 -6 -25 -11 -79 -11 -122 l0 -76 -35 -21 -35 -20 0 -80 0 -79 30 -7 c39 -9 38 -32 -3 -51 -19 -9 -23 -13 -10 -10 34 6 28 -11 -9 -30 -18 -9 -43 -28 -55 -43 -12 -14 -22 -21 -23 -14 0 6 5 15 10 18 6 3 10 17 10 31 0 14 7 27 17 31 10 4 32 15 48 26 l30 18 -35 -6 c-46 -10 -82 -29 -126 -67 -34 -30 -36 -31 -29 -9 7 23 6 24 -34 17 -23 -3 -50 -2 -60 4 -23 12 -41 61 -41 111 0 106 -60 -18 -68 -138 -4 -76 -3 -83 14 -83 11 0 31 6 45 13 14 8 45 17 69 21 34 5 41 4 32 -6 -5 -7 -26 -60 -46 -118 -21 -58 -48 -122 -61 -142 -14 -21 -25 -40 -25 -43 0 -3 281 -5 625 -5 l625 0 0 640 0 640 -49 0 -48 0 -7 -46z m-739 -711 c-3 -10 -5 -2 -5 17 0 19 2 27 5 18 2 -10 2 -26 0 -35z m586 -45 c12 -6 41 -10 64 -9 40 1 44 -1 62 -37 11 -21 27 -44 35 -51 9 -7 13 -17 10 -23 -3 -5 -24 6 -47 25 -52 41 -73 54 -63 39 8 -13 -41 -15 -83 -3 -23 6 -40 41 -20 41 5 0 9 -3 9 -7 0 -5 12 -9 26 -10 24 -1 23 1 -12 23 -40 24 -24 35 19 12z m-568 -188 c-3 -5 -12 -10 -18 -10 -7 0 -6 4 3 10 19 12 23 12 15 0z m-95 -130 c0 -5 -4 -10 -10 -10 -5 0 -10 5 -10 10 0 6 5 10 10 10 6 0 10 -4 10 -10z m130 -69 c0 -6 19 -10 63 -12 9 0 17 -5 17 -11 0 -6 -10 -7 -27 -3 -45 11 -57 13 -84 14 -14 1 -26 7 -26 14 0 9 10 12 29 9 15 -2 28 -7 28 -11z m-33 -27 c-3 -3 -12 -4 -19 -1 -8 3 -5 6 6 6 11 1 17 -2 13 -5z m171 -19 c3 -3 -4 -4 -16 -2 -12 2 -24 6 -28 10 -4 3 4 4 16 2 12 -2 25 -7 28 -10z" transform="translate(0.000000,128.000000) scale(0.100000,-0.100000)"/><path d="M633 1253 c9 -2 23 -2 30 0 6 3 -1 5 -18 5 -16 0 -22 -2 -12 -5z" transform="translate(0.000000,128.000000) scale(0.100000,-0.100000)"/><path d="M32 838 c-16 -16 -15 -48 2 -48 27 0 66 -51 66 -87 0 -27 -6 -37 -30 -51 -29 -17 -39 -32 -20 -32 15 0 60 23 60 31 0 14 31 18 54 8 37 -17 49 -50 44 -118 -4 -60 -4 -61 21 -61 44 0 48 9 40 95 -4 50 -3 85 4 93 12 16 -10 42 -70 80 -23 15 -43 32 -43 39 0 17 -70 63 -95 63 -12 0 -26 -5 -33 -12z" transform="translate(0.000000,128.000000) scale(0.100000,-0.100000)"/></g></svg>