<?xml version="1.0" standalone="no"?>
<!DOCTYPE svg PUBLIC "-//W3C//DTD SVG 20010904//EN"
 "http://www.w3.org/TR/2001/REC-SVG-20010904/DTD/svg10.dtd">
<svg version="1.0" xmlns="http://www.w3.org/2000/svg"
 width="1024.000000pt" height="1024.000000pt" viewBox="0 0 1024.000000 1024.000000"
 preserveAspectRatio="xMidYMid meet">
<metadata>
Created by potrace 1.14, written by Peter Selinger 2001-2017
</metadata>
<g transform="translate(0.000000,1024.000000) scale(0.100000,-0.100000)"
fill="#000000" stroke="none">
<path d="M4988 10040 c-4 -12 -25 -14 -90 -7 -21 2 -38 1 -38 -2 0 -3 -23 -7
-52 -8 -28 -1 -54 -7 -58 -13 -5 -7 -11 -6 -20 5 -13 15 -45 22 -36 7 3 -5 -9
-9 -26 -10 -17 0 -34 -6 -38 -12 -6 -9 -9 -9 -14 -1 -4 6 -12 9 -17 5 -5 -3
-7 -10 -4 -15 3 -5 -1 -6 -9 -3 -9 3 -16 1 -16 -4 0 -6 -9 -9 -20 -7 -14 3
-20 -2 -20 -13 0 -10 -3 -13 -8 -7 -9 13 -35 18 -27 5 4 -6 -4 -10 -19 -10
-16 0 -26 -6 -26 -14 0 -19 -48 -13 -92 11 -5 2 -8 -1 -8 -6 0 -6 7 -11 15
-11 8 0 15 -5 15 -11 0 -6 -7 -9 -15 -5 -10 3 -15 -1 -15 -14 0 -16 -4 -17
-32 -9 -35 10 -68 4 -68 -12 0 -6 8 -6 20 1 11 6 20 7 20 3 0 -5 -9 -14 -20
-21 -12 -7 -20 -8 -20 -2 0 18 -31 11 -52 -12 -11 -13 -17 -17 -13 -10 3 6 3
12 -2 12 -14 0 -35 -17 -33 -26 1 -5 -8 -11 -20 -14 -12 -3 -21 -8 -21 -12 2
-20 0 -22 -10 -5 -8 13 -14 15 -30 7 -10 -6 -19 -7 -19 -3 0 4 -5 1 -10 -7 -5
-8 -17 -15 -27 -15 -10 0 -19 -6 -19 -13 -1 -6 -2 -15 -3 -19 0 -3 -9 2 -20
11 -17 15 -19 15 -25 1 -3 -9 -11 -13 -16 -10 -6 4 -10 3 -9 -2 5 -27 -3 -43
-21 -43 -13 0 -20 -7 -20 -20 0 -18 -3 -19 -20 -10 -26 14 -40 6 -33 -20 6
-23 -6 -26 -26 -7 -8 6 -11 7 -8 2 8 -16 -4 -31 -32 -40 -15 -5 -21 -4 -17 3
3 6 2 13 -3 17 -6 3 -8 -5 -5 -20 3 -18 0 -25 -12 -25 -11 0 -15 6 -11 20 5
19 -13 23 -38 9 -5 -4 -18 -5 -28 -4 -9 2 -15 -1 -11 -6 3 -5 9 -7 14 -4 5 3
13 -3 19 -12 6 -11 11 -13 11 -5 0 7 4 11 9 8 15 -10 0 -54 -21 -59 -11 -3
-17 -10 -14 -15 7 -12 -43 -72 -60 -72 -6 0 -19 -9 -29 -20 -10 -11 -24 -20
-30 -20 -21 0 -36 -25 -23 -38 9 -9 8 -12 -5 -12 -9 0 -17 -4 -17 -10 0 -5 -9
-10 -20 -10 -13 0 -18 -5 -14 -15 8 -21 -12 -42 -47 -50 -16 -4 -29 -13 -29
-21 0 -20 -52 -76 -65 -70 -7 2 -18 0 -26 -4 -11 -7 -10 -10 3 -15 14 -6 15
-10 6 -25 -7 -10 -15 -17 -19 -14 -9 5 -70 -53 -73 -69 -4 -26 -18 -38 -39
-31 -20 6 -21 5 -7 -11 11 -14 12 -19 3 -22 -7 -3 -13 -12 -13 -22 0 -9 -16
-32 -35 -51 -19 -18 -31 -38 -28 -43 4 -6 -2 -8 -15 -5 -12 4 -25 2 -28 -3 -3
-5 2 -9 10 -9 9 0 16 -2 16 -4 0 -11 -43 -76 -50 -76 -4 0 -10 -9 -13 -20 -3
-11 -13 -23 -24 -27 -19 -7 -33 -22 -33 -36 0 -5 5 -5 10 -2 6 3 10 1 10 -5 0
-12 -13 -18 -48 -23 -12 -2 -27 -8 -32 -13 -7 -7 -1 -9 20 -6 32 5 35 1 20
-28 -8 -16 -15 -17 -46 -8 -51 14 -53 3 -2 -14 l43 -15 -43 -40 c-23 -22 -39
-43 -35 -46 3 -4 13 -1 21 6 14 11 14 9 2 -13 -8 -14 -13 -30 -12 -36 1 -5
-14 -18 -33 -27 -37 -17 -48 -47 -17 -47 16 -1 16 -1 0 -14 -10 -7 -16 -22
-14 -33 3 -14 -3 -25 -19 -33 -18 -10 -21 -15 -12 -25 7 -7 15 -11 18 -9 14 8
16 -36 3 -47 -8 -6 -12 -15 -9 -19 3 -5 0 -12 -6 -16 -8 -4 -7 -9 2 -15 11 -6
9 -13 -7 -31 -11 -13 -26 -32 -34 -42 -14 -18 -13 -19 10 -13 l25 6 -24 -20
c-13 -10 -18 -19 -12 -19 14 0 14 -47 0 -56 -8 -4 -7 -9 2 -14 10 -7 10 -15
-1 -42 -7 -18 -20 -41 -28 -50 -8 -9 -11 -22 -7 -28 4 -6 1 -17 -5 -25 -10
-12 -10 -15 -1 -15 8 0 10 -8 6 -21 -5 -15 -4 -19 4 -15 18 11 13 -14 -10 -45
-11 -16 -16 -29 -10 -29 6 0 11 -7 11 -16 0 -9 5 -12 11 -8 9 5 10 -1 4 -22
-4 -16 -8 -34 -9 -39 -1 -6 -9 -21 -18 -34 -21 -29 -13 -45 8 -17 7 11 17 17
20 13 3 -3 -6 -18 -20 -32 -23 -23 -24 -26 -6 -20 32 10 23 -10 -12 -28 l-33
-17 30 6 30 6 -33 -32 c-19 -17 -31 -34 -28 -38 4 -3 12 0 18 6 7 7 16 12 22
12 5 0 1 -7 -10 -15 -10 -8 -15 -15 -10 -15 5 0 -1 -11 -13 -24 -26 -28 -10
-48 18 -22 10 9 21 16 24 16 11 0 2 -37 -13 -56 -13 -16 -13 -17 3 -11 24 9
21 -3 -8 -43 -14 -18 -22 -36 -19 -39 3 -3 9 1 13 8 5 7 17 11 27 9 17 -3 16
-5 -6 -26 -15 -14 -19 -22 -10 -20 20 4 24 -3 16 -30 -4 -12 -12 -20 -17 -17
-5 4 -9 1 -9 -4 0 -6 -9 -11 -20 -11 -11 0 -20 -5 -20 -11 0 -5 5 -7 10 -4 16
10 12 -12 -10 -56 -12 -22 -18 -43 -16 -48 3 -5 -3 -16 -14 -26 -27 -25 -25
-38 5 -33 28 6 32 -3 11 -21 -10 -8 -14 -39 -15 -103 -1 -50 -4 -95 -7 -99 -3
-5 -7 -28 -9 -52 -2 -23 -16 -69 -32 -102 -29 -63 -30 -67 -38 -209 -5 -86 -2
-103 37 -225 6 -19 12 -62 14 -95 8 -135 12 -182 17 -211 13 -69 64 -265 71
-273 3 -2 -4 -27 -15 -56 -38 -94 -31 -220 16 -323 27 -58 63 -88 99 -81 47 9
52 -2 62 -142 3 -47 9 -89 12 -95 3 -5 7 -18 8 -30 4 -38 44 -192 59 -229 8
-20 12 -36 8 -36 -4 0 -2 -5 5 -12 7 -7 12 -21 12 -33 0 -12 4 -25 9 -30 4 -6
21 -44 36 -85 30 -80 53 -129 96 -206 10 -19 21 -46 23 -60 3 -14 12 -36 20
-48 8 -13 15 -42 17 -67 1 -24 6 -48 10 -54 4 -5 9 -24 10 -41 3 -25 -6 -44
-42 -90 -26 -33 -69 -95 -98 -139 -28 -44 -54 -84 -59 -90 -20 -24 -101 -206
-117 -260 -58 -203 -84 -343 -89 -483 -2 -47 -5 -55 -31 -68 -16 -8 -36 -16
-44 -18 -14 -3 -50 -16 -91 -33 -8 -3 -17 -7 -20 -8 -3 -1 -18 -7 -33 -13 -16
-7 -30 -12 -32 -12 -3 0 -28 -11 -57 -24 -29 -14 -66 -28 -81 -31 -15 -4 -27
-10 -27 -14 0 -4 -6 -8 -14 -8 -13 0 -61 -19 -166 -65 -69 -31 -126 -56 -172
-77 -24 -10 -61 -25 -83 -32 -22 -7 -48 -20 -57 -28 -10 -8 -18 -11 -18 -8 0
7 -181 -53 -235 -78 -16 -7 -46 -17 -65 -23 -44 -12 -315 -112 -436 -160 -27
-12 -62 -23 -76 -26 -14 -2 -34 -9 -44 -15 -11 -6 -82 -34 -159 -62 -77 -28
-149 -55 -160 -60 -11 -4 -83 -33 -160 -63 -77 -30 -153 -61 -170 -69 -35 -19
-76 -34 -89 -35 -5 0 -12 -4 -15 -9 -3 -4 -37 -24 -76 -44 -38 -20 -80 -42
-92 -50 l-23 -14 0 -867 0 -868 5120 0 5120 0 0 1254 c0 991 -3 1256 -12 1263
-7 6 -30 13 -50 17 -20 4 -59 16 -85 28 -26 12 -57 24 -68 26 -30 6 -37 8 -70
22 -16 7 -34 14 -40 16 -5 2 -32 10 -60 18 -51 15 -137 45 -190 67 -16 7 -37
13 -45 13 -8 1 -31 9 -50 18 -20 9 -47 19 -60 21 -28 6 -145 43 -175 57 -25
11 -70 24 -70 20 0 -2 -18 6 -41 18 -22 11 -67 30 -100 41 -32 11 -72 25 -89
32 -16 7 -34 13 -40 15 -11 3 -232 77 -310 104 -27 9 -68 23 -90 30 -22 7 -61
25 -88 41 -26 16 -51 29 -56 29 -5 0 -22 7 -37 15 -16 8 -37 15 -46 15 -9 0
-19 4 -23 10 -3 5 -12 7 -20 3 -8 -3 -15 0 -15 7 0 6 -4 8 -10 5 -5 -3 -37 6
-70 21 -51 23 -64 33 -59 47 4 11 -58 97 -105 148 -32 34 -62 74 -66 90 -5 16
-7 115 -5 221 4 211 -8 319 -46 422 -43 117 -126 222 -224 283 -95 60 -367
175 -520 220 -55 16 -78 31 -70 44 7 10 14 187 17 431 2 104 5 188 8 188 3 0
25 -14 50 -30 84 -56 173 -32 212 57 27 62 28 139 4 252 -3 13 2 37 10 54 40
76 76 212 99 372 4 22 10 55 15 74 5 19 7 38 4 42 -2 4 0 10 6 14 5 3 10 14
10 24 0 10 6 31 14 47 8 16 17 43 20 59 2 17 5 30 6 30 7 0 13 68 14 155 0 94
-3 114 -33 195 -37 102 -39 111 -45 217 -5 97 -32 156 -89 197 -23 17 -47 35
-54 41 -7 5 -17 10 -22 10 -5 0 -13 5 -17 11 -3 6 1 10 12 9 39 -4 43 0 20 25
-20 21 -23 35 -23 104 -1 57 -6 86 -18 105 -16 23 -16 26 -1 32 14 5 14 9 -4
31 -11 14 -17 30 -14 35 3 5 -6 21 -21 36 -15 14 -22 28 -17 30 7 2 6 17 -3
42 -7 21 -11 40 -9 43 3 2 0 16 -5 30 -6 15 -6 29 -2 32 8 4 7 26 -4 108 -2
15 1 27 6 27 5 0 4 12 -2 27 -6 15 -12 53 -14 84 -3 31 -9 68 -14 83 -6 14 -8
26 -5 26 4 0 1 7 -6 15 -10 12 -10 15 0 15 12 0 8 70 -7 93 -4 6 -6 24 -5 39
1 15 -4 44 -12 63 -10 22 -11 35 -4 35 6 0 7 7 3 18 -4 9 -8 22 -9 27 -1 6 -7
20 -14 32 -17 30 -15 50 6 58 14 5 11 9 -16 21 -18 7 -31 18 -27 24 3 5 0 20
-7 32 -6 13 -12 28 -13 33 0 16 -28 79 -37 86 -4 3 -9 18 -11 35 -4 29 -53
135 -68 144 -4 3 -6 18 -5 32 2 20 -2 29 -15 33 -18 6 -36 47 -31 73 2 7 -1
12 -5 11 -21 -4 -33 2 -33 17 0 20 -24 44 -44 44 -8 0 -16 10 -18 23 -2 13
-15 28 -35 37 -35 16 -47 42 -29 61 8 9 6 11 -10 7 -22 -6 -44 12 -57 45 -3 9
-13 17 -22 17 -8 0 -15 7 -15 15 0 8 -7 15 -16 15 -9 0 -12 5 -8 12 4 6 3 8
-4 4 -13 -8 -42 20 -42 40 0 8 -4 12 -10 9 -5 -3 -10 -1 -10 4 0 6 -7 11 -15
11 -8 0 -15 7 -15 15 0 8 -7 15 -16 15 -9 0 -35 16 -58 35 -24 19 -48 35 -55
35 -6 0 -11 5 -11 10 0 6 -7 10 -15 10 -8 0 -25 10 -37 23 -13 12 -43 33 -67
46 -25 13 -51 30 -59 37 -13 13 -26 17 -37 12 -2 -2 -12 7 -20 20 -9 12 -20
22 -26 22 -5 0 -28 14 -51 30 -22 17 -49 30 -59 30 -9 0 -19 3 -21 8 -1 4 -21
16 -42 27 -70 36 -75 39 -85 60 -5 11 -10 14 -10 7 -1 -7 -5 -11 -10 -8 -5 3
-7 16 -5 29 2 12 2 16 -2 10 -3 -7 -14 -13 -24 -13 -10 0 -20 -4 -22 -9 -1 -5
-22 4 -46 20 -23 16 -50 29 -58 29 -9 0 -12 5 -8 12 4 6 3 8 -3 5 -12 -8 -78
17 -88 33 -3 5 -15 10 -26 10 -20 0 -31 8 -59 44 -9 12 -10 17 -2 12 6 -4 12
-3 12 3 0 5 -4 13 -10 16 -5 3 -10 2 -10 -4 0 -18 -32 -43 -40 -32 -10 18 -69
31 -77 18 -4 -7 -9 -4 -13 9 -4 10 -13 19 -21 19 -39 2 -191 37 -206 47 -6 5
-14 5 -17 -1 -5 -7 -16 -7 -34 0 -18 7 -28 7 -30 0 -2 -6 -9 -8 -15 -4 -6 3
-28 7 -50 8 -21 1 -42 7 -47 14 -6 10 -9 10 -12 1z"/>
<path d="M5699 9912 c6 -12 16 -24 22 -28 8 -4 8 -1 0 14 -6 12 -16 24 -22 28
-8 4 -8 1 0 -14z"/>
<path d="M5870 9856 c0 -2 8 -10 18 -17 15 -13 16 -12 3 4 -13 16 -21 21 -21
13z"/>
<path d="M3430 9381 c14 -11 30 -21 35 -21 11 0 -7 14 -40 31 -13 7 -12 3 5
-10z"/>
<path d="M2735 8230 c-7 -12 2 -12 30 0 19 8 19 9 -2 9 -12 1 -25 -3 -28 -9z"/>
<path d="M2575 7010 c-3 -5 -2 -10 4 -10 5 0 13 5 16 10 3 6 2 10 -4 10 -5 0
-13 -4 -16 -10z"/>
</g>
</svg>
